{"title":"Aquarion","uid":9541308,"size":2439032230,"categoryP":"video","categoryS":"tv_shows","magnet":"?xt=urn:btih:59891685cc7224cf5d55851e7c1845f6c357dc1e&amp;dn=Aquarion&amp;tr=udp%3A%2F%2Ftracker.openbittorrent.com%3A80&amp;tr=udp%3A%2F%2Fopen.demonii.com%3A1337&amp;tr=udp%3A%2F%2Ftracker.coppersurfer.tk%3A6969&amp;tr=udp%3A%2F%2Fexodus.desync.com%3A6969","seeders":1,"leechers":1,"uploader":"p7trick","files":-1,"time":1391049688,"description":"downloaded from watchcartoononline\n\nAquarion Season 1 eps 1-26 ENGLISH DUBBED\n_________________________________________________________\n\nFormat                                   : Flash Video\nFile size                                : 92.2 MiB\nDuration                                 : 25mn 30s\nOverall bit rate                         : 506 Kbps\n\nVideo\nFormat                                   : AVC\nFormat/Info                              : Advanced Video Codec\nFormat profile                           : &lt;a class=&quot;__cf_email__&quot; href=&quot;/cdn-cgi/l/email-protection&quot; data-cfemail=&quot;d39bbab4bb939fe0fde3&quot;&gt;[email&amp;#160;protected]&lt;/a&gt;&lt;script cf-hash='f9e31' type=&quot;text/javascript&quot;&gt;\n/* &lt;![CDATA[ */!function(){try{var t=&quot;currentScript&quot;in document?document.currentScript:function(){for(var t=document.getElementsByTagName(&quot;script&quot;),e=t.length;e--;)if(t[e].getAttribute(&quot;cf-hash&quot;))return t[e]}();if(t&amp;&amp;t.previousSibling){var e,r,n,i,c=t.previousSibling,a=c.getAttribute(&quot;data-cfemail&quot;);if(a){for(e=&quot;&quot;,r=parseInt(a.substr(0,2),16),n=2;a.length-n;n+=2)i=parseInt(a.substr(n,2),16)^r,e+=String.fromCharCode(i);e=document.createTextNode(e),c.parentNode.replaceChild(e,c)}}}catch(u){}}();/* ]]&gt; */&lt;/script&gt;\nFormat settings, CABAC                   : Yes\nFormat settings, ReFrames                : 4 frames\nCodec ID                                 : 7\nDuration                                 : 25mn 29s\nBit rate                                 : 400 Kbps\nWidth                                    : 720 pixels\nHeight                                   : 400 pixels\nDisplay aspect ratio                     : 16:9\nFrame rate mode                          : Constant\nFrame rate                               : 23.976 fps\nColor space                              : YUV\nChroma subsampling                       : 4:2:0\nBit depth                                : 8 bits\nScan type                                : Progressive\nBits/(Pixel*Frame)                       : 0.058\nStream size                              : 73.5 MiB (80%)\n\nAudio\nFormat                                   : AAC\nFormat/Info                              : Advanced Audio Codec\nFormat profile                           : LC\nCodec ID                                 : 10\nDuration                                 : 25mn 30s\nBit rate                                 : 94.4 Kbps\nChannel count                            : 2 channels\nChannel positions                        : Front: L R\nSampling rate                            : 44.1 KHz\nCompression mode                         : Lossy\nDelay relative to video                  : 42ms\nStream size                              : 18.3 MiB (20%)\n_________________________________________________________\nSummary:\nHoly Genesis Era. Year 0011. Mankind has lost 2/3 of its population. The Great Catastrophe, which ruined the planet 11 years ago, caused the ice of Antarctica to melt.\n\nIn the Lost Atlantis, which was believed to be destroyed 12000 years ago, the winged race of Shadow Angels resurrected. They sent their bio-mechanical mythical beasts to harvest the life energy Purana of humans in the few remaining cities.\n\nHumanity tries to hold off the onslought when the Godspeed Magician Fudo Gen excavated in the sea near Crete the so-called vector machines, legendary machines which gave new hope. With these 3 new weapons, Mars, Luna and Sol, piloted by gifted pilots who posess the element to activate them, the legendary Mechanical Angel Aquarion can be united from the 3 vectors...\n\nThe elements who needed to have pure souls and sharp senses, finally start off the fight and the time of uniting humanity's hopes into the legendary Aquarion has come.\n\n\nFor updates/requests:\nTwitter - @p7tricktorrent\nFacebook - /p7tricktorrent\nTPB - /user/p7trick/\nKAT - /user/iPirate7\n_________________________________________________________\n\nSEED!\n\nshare ratio:\n&quot;Scumbag = 0.1:1\nLeecher = 0.999:1\nMinimum = 1:1\nGood = 3:1\nGreat = 5:1\nAwesome = 10:1\n1337 = 100:1&quot;\t","torrent":{"xt":"urn:btih:59891685cc7224cf5d55851e7c1845f6c357dc1e","amp;dn":"Aquarion","amp;tr":["udp%3A%2F%2Ftracker.openbittorrent.com%3A80","udp%3A%2F%2Fopen.demonii.com%3A1337","udp%3A%2F%2Ftracker.coppersurfer.tk%3A6969","udp%3A%2F%2Fexodus.desync.com%3A6969"],"infoHash":"59891685cc7224cf5d55851e7c1845f6c357dc1e","infoHashBuffer":{"type":"Buffer","data":[89,137,22,133,204,114,36,207,93,85,133,30,124,24,69,246,195,87,220,30]},"announce":[],"urlList":[]}}